<svg xmlns="http://www.w3.org/2000/svg" viewBox="0 0 87 87"><defs><style>.cls-1{fill:red;}.cls-2{fill:#fff;}</style></defs><title>Asset 1</title><g id="Layer_2" data-name="Layer 2"><g id="Layer_1-2" data-name="Layer 1"><circle class="cls-1" cx="43.5" cy="43.5" r="43.5"/><path class="cls-2" d="M64.93,24.32,62.19,36.17H59.94a25.06,25.06,0,0,0-.45-2.48,19.5,19.5,0,0,0-.92-2.95,12,12,0,0,0-1.33-2.51,2.67,2.67,0,0,0-1.71-1.17q-.88-.12-2.23-.2T51,26.77H49.5L42.06,59q-.12.5-.19.95a4.65,4.65,0,0,0-.07.66,2.67,2.67,0,0,0,.28,1.24,2,2,0,0,0,1,.86,11.82,11.82,0,0,0,2,.57,22.24,22.24,0,0,0,2.22.36l-.5,2.13H23.79l.5-2.13q.82-.06,2.39-.23A11.43,11.43,0,0,0,28.92,63a3.92,3.92,0,0,0,1.75-1.25,4.81,4.81,0,0,0,.82-1.87l7.64-33.06H38q-1.11,0-2.23.07t-2.55.22a4.86,4.86,0,0,0-2.35,1.25,31.15,31.15,0,0,0-2.52,2.42,35.93,35.93,0,0,0-2.41,3Q25,35,24.31,36.17H22.07l2.74-11.85Z"/></g></g></svg>