<svg xmlns='http://www.w3.org/2000/svg'><path d="M21.48,43.32a12.15,12.15,0,0,1-1.73.43,5.7,5.7,0,0,1-3.22-.2,3,3,0,0,1-1.62-2.47A10.06,10.06,0,0,1,14.77,39L15,21.69l7.9-1.38,0-7.38-8,1.4,0-10.75L6.18,5.09l0,10.75L0,16.92,0,24.3l6.34-1.11L6.17,40.31a18.64,18.64,0,0,0,.06,2.33,22.93,22.93,0,0,0,.28,2.28A8,8,0,0,0,9.94,50.5q2.78,1.84,8.45.86a15.66,15.66,0,0,0,2.75-.75,13.86,13.86,0,0,0,2.52-1.16L23,42.72C22.55,42.93,22,43.13,21.48,43.32Z"/><path d="M46.42,35.88l-.15,0L37.08,10.47l-9.4,1.63L42,46.56,40.1,51.65a21.41,21.41,0,0,1-2.29,4.74,5.25,5.25,0,0,1-3.6,2,12.8,12.8,0,0,1-1.62.17,8.59,8.59,0,0,1-1.75-.12l.21,7.8a14.06,14.06,0,0,0,2.34,0c.79-.06,1.55-.15,2.3-.28a14.24,14.24,0,0,0,4.43-1.46A11.75,11.75,0,0,0,43.31,62a15.88,15.88,0,0,0,2.39-3.71,49.9,49.9,0,0,0,1.94-4.76L65.41,5.54l-9.24,1.6Z"/><path d="M106.34,7a14.48,14.48,0,0,0-3.9-4.35A14,14,0,0,0,97.11.32a16.86,16.86,0,0,0-6.42,0,16.3,16.3,0,0,0-7.08,3A15,15,0,0,0,78.94,9.1l-.23,0-.1-5.9L70.33,4.68l-.14,55.26L79,58.41l-.15-24.25.15,0a12,12,0,0,0,5.45,4.18,15.64,15.64,0,0,0,8.26.43,18.37,18.37,0,0,0,7.64-3.14,19.67,19.67,0,0,0,5.39-5.85A22.54,22.54,0,0,0,108.57,22a25.85,25.85,0,0,0,0-8.9A17.79,17.79,0,0,0,106.34,7Zm-6.5,14.26a13.71,13.71,0,0,1-1.69,4.89,12,12,0,0,1-3.35,3.69,11.55,11.55,0,0,1-4.84,2,8.86,8.86,0,0,1-7.09-1.45,9.46,9.46,0,0,1-3.62-6.26,15.28,15.28,0,0,1,0-5.56,15,15,0,0,1,1.86-5A12.64,12.64,0,0,1,84.6,9.87a11.46,11.46,0,0,1,4.73-2,8.23,8.23,0,0,1,7,1.54,10,10,0,0,1,3.43,6.22A17.66,17.66,0,0,1,99.84,21.27Z"/></svg>
